<mxfile host="app.diagrams.net" modified="2021-10-25T02:01:12.922Z" agent="5.0 (Windows NT 10.0; Win64; x64) AppleWebKit/537.36 (KHTML, like Gecko) Chrome/94.0.4606.81 Safari/537.36 OPR/80.0.4170.63" etag="mN7uZxR1ihPeENPoaavH" version="15.5.8" type="github">
  <diagram id="ZOsYGTXaRWKMZSjGL1pl" name="Page-1">
    <mxGraphModel dx="2207" dy="1991" grid="1" gridSize="10" guides="1" tooltips="1" connect="1" arrows="1" fold="1" page="1" pageScale="1" pageWidth="827" pageHeight="1169" math="0" shadow="1">
      <root>
        <mxCell id="0" />
        <mxCell id="1" parent="0" />
        <mxCell id="QmhnX_1U1qEKOb4TdhDl-2" style="edgeStyle=orthogonalEdgeStyle;rounded=0;orthogonalLoop=1;jettySize=auto;html=1;exitX=0.5;exitY=1;exitDx=0;exitDy=0;entryX=0.75;entryY=0;entryDx=0;entryDy=0;endArrow=none;endFill=0;" parent="1" source="yU-a4sMeyM81T8pN_S2K-34" target="yU-a4sMeyM81T8pN_S2K-37" edge="1">
          <mxGeometry relative="1" as="geometry">
            <Array as="points">
              <mxPoint x="-120" y="370" />
            </Array>
          </mxGeometry>
        </mxCell>
        <mxCell id="yU-a4sMeyM81T8pN_S2K-34" value="&lt;p style=&quot;line-height: 0&quot;&gt;Avaliação&lt;/p&gt;" style="rounded=0;whiteSpace=wrap;html=1;align=left;" parent="1" vertex="1">
          <mxGeometry x="-190" y="310" width="145" height="60" as="geometry" />
        </mxCell>
        <mxCell id="yU-a4sMeyM81T8pN_S2K-3" value="" style="edgeStyle=orthogonalEdgeStyle;rounded=0;orthogonalLoop=1;jettySize=auto;html=1;endArrow=none;endFill=0;" parent="1" source="yU-a4sMeyM81T8pN_S2K-1" target="yU-a4sMeyM81T8pN_S2K-2" edge="1">
          <mxGeometry relative="1" as="geometry" />
        </mxCell>
        <mxCell id="yU-a4sMeyM81T8pN_S2K-1" value="Categorias" style="rounded=0;whiteSpace=wrap;html=1;" parent="1" vertex="1">
          <mxGeometry x="414" y="278.75" width="120" height="60" as="geometry" />
        </mxCell>
        <mxCell id="yU-a4sMeyM81T8pN_S2K-7" value="" style="edgeStyle=orthogonalEdgeStyle;rounded=0;orthogonalLoop=1;jettySize=auto;html=1;endArrow=none;endFill=0;" parent="1" source="yU-a4sMeyM81T8pN_S2K-2" target="yU-a4sMeyM81T8pN_S2K-6" edge="1">
          <mxGeometry relative="1" as="geometry" />
        </mxCell>
        <mxCell id="yU-a4sMeyM81T8pN_S2K-2" value="tem" style="rhombus;whiteSpace=wrap;html=1;rounded=0;" parent="1" vertex="1">
          <mxGeometry x="414" y="428.75" width="120" height="60" as="geometry" />
        </mxCell>
        <mxCell id="yU-a4sMeyM81T8pN_S2K-19" style="edgeStyle=orthogonalEdgeStyle;rounded=0;orthogonalLoop=1;jettySize=auto;html=1;exitX=0.5;exitY=1;exitDx=0;exitDy=0;entryX=0.5;entryY=0;entryDx=0;entryDy=0;endArrow=none;endFill=0;" parent="1" source="yU-a4sMeyM81T8pN_S2K-4" target="yU-a4sMeyM81T8pN_S2K-1" edge="1">
          <mxGeometry relative="1" as="geometry" />
        </mxCell>
        <mxCell id="yU-a4sMeyM81T8pN_S2K-4" value="Possui" style="rhombus;whiteSpace=wrap;html=1;rounded=0;" parent="1" vertex="1">
          <mxGeometry x="409.5" y="148.75" width="129" height="60" as="geometry" />
        </mxCell>
        <mxCell id="yU-a4sMeyM81T8pN_S2K-9" value="" style="edgeStyle=orthogonalEdgeStyle;rounded=0;orthogonalLoop=1;jettySize=auto;html=1;endArrow=none;endFill=0;" parent="1" source="yU-a4sMeyM81T8pN_S2K-6" target="yU-a4sMeyM81T8pN_S2K-8" edge="1">
          <mxGeometry relative="1" as="geometry" />
        </mxCell>
        <mxCell id="yU-a4sMeyM81T8pN_S2K-6" value="Restaurante" style="whiteSpace=wrap;html=1;rounded=0;" parent="1" vertex="1">
          <mxGeometry x="414" y="558.75" width="120" height="60" as="geometry" />
        </mxCell>
        <mxCell id="yU-a4sMeyM81T8pN_S2K-11" value="" style="edgeStyle=orthogonalEdgeStyle;rounded=0;orthogonalLoop=1;jettySize=auto;html=1;endArrow=none;endFill=0;" parent="1" source="yU-a4sMeyM81T8pN_S2K-8" target="yU-a4sMeyM81T8pN_S2K-10" edge="1">
          <mxGeometry relative="1" as="geometry" />
        </mxCell>
        <mxCell id="yU-a4sMeyM81T8pN_S2K-8" value="Possui" style="rhombus;whiteSpace=wrap;html=1;rounded=0;" parent="1" vertex="1">
          <mxGeometry x="640" y="558.75" width="120" height="60" as="geometry" />
        </mxCell>
        <mxCell id="yU-a4sMeyM81T8pN_S2K-13" value="" style="edgeStyle=orthogonalEdgeStyle;rounded=0;orthogonalLoop=1;jettySize=auto;html=1;endArrow=none;endFill=0;" parent="1" source="yU-a4sMeyM81T8pN_S2K-10" target="yU-a4sMeyM81T8pN_S2K-12" edge="1">
          <mxGeometry relative="1" as="geometry" />
        </mxCell>
        <mxCell id="yU-a4sMeyM81T8pN_S2K-10" value="Cardapio" style="whiteSpace=wrap;html=1;rounded=0;" parent="1" vertex="1">
          <mxGeometry x="640" y="698.75" width="120" height="60" as="geometry" />
        </mxCell>
        <mxCell id="yU-a4sMeyM81T8pN_S2K-15" value="" style="edgeStyle=orthogonalEdgeStyle;rounded=0;orthogonalLoop=1;jettySize=auto;html=1;endArrow=none;endFill=0;" parent="1" source="yU-a4sMeyM81T8pN_S2K-12" target="yU-a4sMeyM81T8pN_S2K-14" edge="1">
          <mxGeometry relative="1" as="geometry" />
        </mxCell>
        <mxCell id="yU-a4sMeyM81T8pN_S2K-12" value="Tem&amp;nbsp;" style="rhombus;whiteSpace=wrap;html=1;rounded=0;" parent="1" vertex="1">
          <mxGeometry x="440" y="697.5" width="100" height="62.5" as="geometry" />
        </mxCell>
        <mxCell id="yU-a4sMeyM81T8pN_S2K-14" value="Item" style="whiteSpace=wrap;html=1;rounded=0;" parent="1" vertex="1">
          <mxGeometry x="250" y="698.75" width="120" height="60" as="geometry" />
        </mxCell>
        <mxCell id="yU-a4sMeyM81T8pN_S2K-18" style="edgeStyle=orthogonalEdgeStyle;rounded=0;orthogonalLoop=1;jettySize=auto;html=1;exitX=0.5;exitY=1;exitDx=0;exitDy=0;entryX=0.5;entryY=0;entryDx=0;entryDy=0;endArrow=none;endFill=0;" parent="1" target="yU-a4sMeyM81T8pN_S2K-4" edge="1">
          <mxGeometry relative="1" as="geometry">
            <mxPoint x="474" y="80" as="sourcePoint" />
          </mxGeometry>
        </mxCell>
        <mxCell id="yU-a4sMeyM81T8pN_S2K-21" value="" style="edgeStyle=orthogonalEdgeStyle;rounded=0;orthogonalLoop=1;jettySize=auto;html=1;endArrow=none;endFill=0;" parent="1" target="yU-a4sMeyM81T8pN_S2K-20" edge="1">
          <mxGeometry relative="1" as="geometry">
            <Array as="points">
              <mxPoint x="360" y="50" />
              <mxPoint x="360" y="50" />
            </Array>
            <mxPoint x="412" y="50" as="sourcePoint" />
          </mxGeometry>
        </mxCell>
        <mxCell id="b9xJRUf1RVcOAnPKbmVs-2" style="edgeStyle=orthogonalEdgeStyle;rounded=0;orthogonalLoop=1;jettySize=auto;html=1;exitX=0;exitY=1;exitDx=0;exitDy=0;endArrow=none;endFill=0;startArrow=none;" parent="1" source="b9xJRUf1RVcOAnPKbmVs-4" edge="1">
          <mxGeometry relative="1" as="geometry">
            <mxPoint x="240" y="140" as="targetPoint" />
          </mxGeometry>
        </mxCell>
        <mxCell id="b9xJRUf1RVcOAnPKbmVs-17" value="" style="edgeStyle=orthogonalEdgeStyle;rounded=0;orthogonalLoop=1;jettySize=auto;html=1;endArrow=none;endFill=0;" parent="1" target="b9xJRUf1RVcOAnPKbmVs-16" edge="1">
          <mxGeometry relative="1" as="geometry">
            <mxPoint x="474" y="20" as="sourcePoint" />
          </mxGeometry>
        </mxCell>
        <mxCell id="yU-a4sMeyM81T8pN_S2K-23" value="" style="edgeStyle=orthogonalEdgeStyle;rounded=0;orthogonalLoop=1;jettySize=auto;html=1;endArrow=none;endFill=0;" parent="1" source="yU-a4sMeyM81T8pN_S2K-20" target="yU-a4sMeyM81T8pN_S2K-22" edge="1">
          <mxGeometry relative="1" as="geometry" />
        </mxCell>
        <mxCell id="yU-a4sMeyM81T8pN_S2K-20" value="possui" style="rhombus;whiteSpace=wrap;html=1;rounded=0;" parent="1" vertex="1">
          <mxGeometry x="140" y="20" width="120" height="60" as="geometry" />
        </mxCell>
        <mxCell id="yU-a4sMeyM81T8pN_S2K-25" value="" style="edgeStyle=orthogonalEdgeStyle;rounded=0;orthogonalLoop=1;jettySize=auto;html=1;endArrow=none;endFill=0;" parent="1" source="yU-a4sMeyM81T8pN_S2K-22" target="yU-a4sMeyM81T8pN_S2K-24" edge="1">
          <mxGeometry relative="1" as="geometry" />
        </mxCell>
        <mxCell id="yU-a4sMeyM81T8pN_S2K-29" value="" style="edgeStyle=orthogonalEdgeStyle;rounded=0;orthogonalLoop=1;jettySize=auto;html=1;endArrow=none;endFill=0;" parent="1" source="yU-a4sMeyM81T8pN_S2K-22" target="yU-a4sMeyM81T8pN_S2K-28" edge="1">
          <mxGeometry relative="1" as="geometry">
            <Array as="points">
              <mxPoint x="-40" y="90" />
              <mxPoint x="-40" y="90" />
            </Array>
          </mxGeometry>
        </mxCell>
        <mxCell id="yU-a4sMeyM81T8pN_S2K-33" value="" style="edgeStyle=orthogonalEdgeStyle;rounded=0;orthogonalLoop=1;jettySize=auto;html=1;endArrow=none;endFill=0;" parent="1" source="yU-a4sMeyM81T8pN_S2K-22" target="yU-a4sMeyM81T8pN_S2K-32" edge="1">
          <mxGeometry relative="1" as="geometry">
            <Array as="points">
              <mxPoint x="-20" y="200" />
            </Array>
          </mxGeometry>
        </mxCell>
        <mxCell id="yU-a4sMeyM81T8pN_S2K-22" value="Usuario" style="whiteSpace=wrap;html=1;rounded=0;" parent="1" vertex="1">
          <mxGeometry x="-60" y="20" width="120" height="60" as="geometry" />
        </mxCell>
        <mxCell id="yU-a4sMeyM81T8pN_S2K-27" value="" style="edgeStyle=orthogonalEdgeStyle;rounded=0;orthogonalLoop=1;jettySize=auto;html=1;endArrow=none;endFill=0;" parent="1" source="yU-a4sMeyM81T8pN_S2K-24" target="yU-a4sMeyM81T8pN_S2K-26" edge="1">
          <mxGeometry relative="1" as="geometry" />
        </mxCell>
        <mxCell id="yU-a4sMeyM81T8pN_S2K-24" value="possui" style="rhombus;whiteSpace=wrap;html=1;rounded=0;" parent="1" vertex="1">
          <mxGeometry x="-260" y="25" width="100" height="50" as="geometry" />
        </mxCell>
        <mxCell id="yU-a4sMeyM81T8pN_S2K-26" value="Cartão" style="whiteSpace=wrap;html=1;rounded=0;" parent="1" vertex="1">
          <mxGeometry x="-430" y="260" width="120" height="60" as="geometry" />
        </mxCell>
        <mxCell id="yU-a4sMeyM81T8pN_S2K-35" style="edgeStyle=orthogonalEdgeStyle;rounded=0;orthogonalLoop=1;jettySize=auto;html=1;exitX=0.5;exitY=1;exitDx=0;exitDy=0;endArrow=none;endFill=0;entryX=0.303;entryY=0.028;entryDx=0;entryDy=0;entryPerimeter=0;" parent="1" source="yU-a4sMeyM81T8pN_S2K-28" edge="1" target="yU-a4sMeyM81T8pN_S2K-37">
          <mxGeometry relative="1" as="geometry">
            <mxPoint x="-170" y="460" as="targetPoint" />
            <Array as="points">
              <mxPoint x="-300" y="300" />
              <mxPoint x="-300" y="420" />
              <mxPoint x="-170" y="420" />
              <mxPoint x="-170" y="472" />
            </Array>
          </mxGeometry>
        </mxCell>
        <mxCell id="yU-a4sMeyM81T8pN_S2K-28" value="Faz" style="rhombus;whiteSpace=wrap;html=1;rounded=0;" parent="1" vertex="1">
          <mxGeometry x="-360" y="110" width="120" height="50" as="geometry" />
        </mxCell>
        <mxCell id="QmhnX_1U1qEKOb4TdhDl-1" style="edgeStyle=orthogonalEdgeStyle;rounded=0;orthogonalLoop=1;jettySize=auto;html=1;exitX=0.5;exitY=1;exitDx=0;exitDy=0;endArrow=none;endFill=0;" parent="1" source="yU-a4sMeyM81T8pN_S2K-32" target="yU-a4sMeyM81T8pN_S2K-34" edge="1">
          <mxGeometry relative="1" as="geometry">
            <Array as="points">
              <mxPoint x="-160" y="230" />
              <mxPoint x="-160" y="290" />
              <mxPoint x="-117" y="290" />
            </Array>
          </mxGeometry>
        </mxCell>
        <mxCell id="yU-a4sMeyM81T8pN_S2K-32" value="Realiza" style="rhombus;whiteSpace=wrap;html=1;rounded=0;" parent="1" vertex="1">
          <mxGeometry x="-270" y="170" width="110" height="60" as="geometry" />
        </mxCell>
        <mxCell id="yU-a4sMeyM81T8pN_S2K-39" value="" style="edgeStyle=orthogonalEdgeStyle;rounded=0;orthogonalLoop=1;jettySize=auto;html=1;endArrow=none;endFill=0;" parent="1" source="yU-a4sMeyM81T8pN_S2K-37" target="yU-a4sMeyM81T8pN_S2K-38" edge="1">
          <mxGeometry relative="1" as="geometry" />
        </mxCell>
        <mxCell id="yU-a4sMeyM81T8pN_S2K-42" value="" style="edgeStyle=orthogonalEdgeStyle;rounded=0;orthogonalLoop=1;jettySize=auto;html=1;endArrow=none;endFill=0;" parent="1" source="yU-a4sMeyM81T8pN_S2K-37" target="yU-a4sMeyM81T8pN_S2K-41" edge="1">
          <mxGeometry relative="1" as="geometry">
            <Array as="points">
              <mxPoint x="-230" y="530" />
              <mxPoint x="-230" y="530" />
            </Array>
          </mxGeometry>
        </mxCell>
        <mxCell id="yU-a4sMeyM81T8pN_S2K-47" style="edgeStyle=orthogonalEdgeStyle;rounded=0;orthogonalLoop=1;jettySize=auto;html=1;exitX=1;exitY=1;exitDx=0;exitDy=0;endArrow=none;endFill=0;" parent="1" source="yU-a4sMeyM81T8pN_S2K-37" edge="1">
          <mxGeometry relative="1" as="geometry">
            <mxPoint x="-90" y="700" as="targetPoint" />
          </mxGeometry>
        </mxCell>
        <mxCell id="fdX4hyj6OW9Jkt6rQhxo-3" value="" style="edgeStyle=orthogonalEdgeStyle;rounded=0;orthogonalLoop=1;jettySize=auto;html=1;endArrow=none;endFill=0;" parent="1" source="yU-a4sMeyM81T8pN_S2K-37" target="fdX4hyj6OW9Jkt6rQhxo-2" edge="1">
          <mxGeometry relative="1" as="geometry">
            <Array as="points">
              <mxPoint x="-210" y="580" />
              <mxPoint x="-210" y="580" />
            </Array>
          </mxGeometry>
        </mxCell>
        <mxCell id="yU-a4sMeyM81T8pN_S2K-37" value="Pedido" style="rounded=0;whiteSpace=wrap;html=1;align=center;" parent="1" vertex="1">
          <mxGeometry x="-210" y="470" width="120" height="60" as="geometry" />
        </mxCell>
        <mxCell id="yU-a4sMeyM81T8pN_S2K-40" style="edgeStyle=orthogonalEdgeStyle;rounded=0;orthogonalLoop=1;jettySize=auto;html=1;entryX=0;entryY=0.5;entryDx=0;entryDy=0;endArrow=none;endFill=0;" parent="1" source="yU-a4sMeyM81T8pN_S2K-38" target="yU-a4sMeyM81T8pN_S2K-6" edge="1">
          <mxGeometry relative="1" as="geometry">
            <mxPoint x="350" y="580" as="targetPoint" />
            <Array as="points">
              <mxPoint x="220" y="590" />
            </Array>
          </mxGeometry>
        </mxCell>
        <mxCell id="yU-a4sMeyM81T8pN_S2K-38" value="Em" style="rhombus;whiteSpace=wrap;html=1;rounded=0;" parent="1" vertex="1">
          <mxGeometry x="170" y="365" width="100" height="50" as="geometry" />
        </mxCell>
        <mxCell id="yU-a4sMeyM81T8pN_S2K-44" value="" style="edgeStyle=orthogonalEdgeStyle;rounded=0;orthogonalLoop=1;jettySize=auto;html=1;endArrow=none;endFill=0;" parent="1" source="yU-a4sMeyM81T8pN_S2K-41" target="yU-a4sMeyM81T8pN_S2K-43" edge="1">
          <mxGeometry relative="1" as="geometry" />
        </mxCell>
        <mxCell id="yU-a4sMeyM81T8pN_S2K-41" value="Possui" style="rhombus;whiteSpace=wrap;html=1;rounded=0;" parent="1" vertex="1">
          <mxGeometry x="-400" y="505" width="90" height="50" as="geometry" />
        </mxCell>
        <mxCell id="yU-a4sMeyM81T8pN_S2K-43" value="Status" style="rounded=0;whiteSpace=wrap;html=1;" parent="1" vertex="1">
          <mxGeometry x="-415" y="600" width="120" height="60" as="geometry" />
        </mxCell>
        <mxCell id="yU-a4sMeyM81T8pN_S2K-49" style="edgeStyle=orthogonalEdgeStyle;rounded=0;orthogonalLoop=1;jettySize=auto;html=1;exitX=0.5;exitY=1;exitDx=0;exitDy=0;entryX=0;entryY=0.5;entryDx=0;entryDy=0;endArrow=none;endFill=0;" parent="1" source="yU-a4sMeyM81T8pN_S2K-48" target="yU-a4sMeyM81T8pN_S2K-14" edge="1">
          <mxGeometry relative="1" as="geometry" />
        </mxCell>
        <mxCell id="yU-a4sMeyM81T8pN_S2K-48" value="Possui" style="rhombus;whiteSpace=wrap;html=1;align=center;" parent="1" vertex="1">
          <mxGeometry x="-135" y="600" width="90" height="60" as="geometry" />
        </mxCell>
        <mxCell id="IrhAmNefoeoScViRbf2u-1" value="" style="ellipse;whiteSpace=wrap;html=1;rounded=0;fillColor=#000000;" parent="1" vertex="1">
          <mxGeometry x="-520" y="260" width="10" height="10" as="geometry" />
        </mxCell>
        <mxCell id="IrhAmNefoeoScViRbf2u-3" value="" style="endArrow=none;html=1;rounded=0;" parent="1" edge="1">
          <mxGeometry width="50" height="50" relative="1" as="geometry">
            <mxPoint x="-510" y="264.94" as="sourcePoint" />
            <mxPoint x="-430" y="264.94" as="targetPoint" />
          </mxGeometry>
        </mxCell>
        <mxCell id="IrhAmNefoeoScViRbf2u-4" value="Num_cartao" style="edgeLabel;html=1;align=center;verticalAlign=middle;resizable=0;points=[];labelBackgroundColor=none;" parent="IrhAmNefoeoScViRbf2u-3" vertex="1" connectable="0">
          <mxGeometry x="-0.382" y="1" relative="1" as="geometry">
            <mxPoint x="5" y="-7" as="offset" />
          </mxGeometry>
        </mxCell>
        <mxCell id="IrhAmNefoeoScViRbf2u-5" value="" style="ellipse;whiteSpace=wrap;html=1;rounded=0;fillColor=#000000;" parent="1" vertex="1">
          <mxGeometry x="-505" y="600" width="10" height="10" as="geometry" />
        </mxCell>
        <mxCell id="IrhAmNefoeoScViRbf2u-6" value="" style="endArrow=none;html=1;rounded=0;" parent="1" edge="1">
          <mxGeometry width="50" height="50" relative="1" as="geometry">
            <mxPoint x="-495" y="604.94" as="sourcePoint" />
            <mxPoint x="-415" y="604.94" as="targetPoint" />
          </mxGeometry>
        </mxCell>
        <mxCell id="IrhAmNefoeoScViRbf2u-7" value="Id_status" style="edgeLabel;html=1;align=center;verticalAlign=middle;resizable=0;points=[];labelBackgroundColor=none;" parent="IrhAmNefoeoScViRbf2u-6" vertex="1" connectable="0">
          <mxGeometry x="-0.382" y="1" relative="1" as="geometry">
            <mxPoint x="10" y="-7" as="offset" />
          </mxGeometry>
        </mxCell>
        <mxCell id="IrhAmNefoeoScViRbf2u-9" value="" style="ellipse;whiteSpace=wrap;html=1;rounded=0;fillColor=#000000;" parent="1" vertex="1">
          <mxGeometry x="-300" y="470" width="10" height="10" as="geometry" />
        </mxCell>
        <mxCell id="IrhAmNefoeoScViRbf2u-10" value="" style="endArrow=none;html=1;rounded=0;" parent="1" edge="1">
          <mxGeometry width="50" height="50" relative="1" as="geometry">
            <mxPoint x="-290" y="474.94" as="sourcePoint" />
            <mxPoint x="-210" y="474.94" as="targetPoint" />
          </mxGeometry>
        </mxCell>
        <mxCell id="IrhAmNefoeoScViRbf2u-11" value="Id_pedido" style="edgeLabel;html=1;align=center;verticalAlign=middle;resizable=0;points=[];labelBackgroundColor=none;" parent="IrhAmNefoeoScViRbf2u-10" vertex="1" connectable="0">
          <mxGeometry x="-0.382" y="1" relative="1" as="geometry">
            <mxPoint x="5" y="-7" as="offset" />
          </mxGeometry>
        </mxCell>
        <mxCell id="IrhAmNefoeoScViRbf2u-15" value="" style="ellipse;whiteSpace=wrap;html=1;rounded=0;fillColor=#000000;" parent="1" vertex="1">
          <mxGeometry x="324" y="278.75" width="10" height="10" as="geometry" />
        </mxCell>
        <mxCell id="IrhAmNefoeoScViRbf2u-16" value="" style="endArrow=none;html=1;rounded=0;" parent="1" edge="1">
          <mxGeometry width="50" height="50" relative="1" as="geometry">
            <mxPoint x="334" y="283.68999999999994" as="sourcePoint" />
            <mxPoint x="414" y="283.68999999999994" as="targetPoint" />
          </mxGeometry>
        </mxCell>
        <mxCell id="IrhAmNefoeoScViRbf2u-17" value="Id_categorias" style="edgeLabel;html=1;align=center;verticalAlign=middle;resizable=0;points=[];labelBackgroundColor=none;" parent="IrhAmNefoeoScViRbf2u-16" vertex="1" connectable="0">
          <mxGeometry x="-0.382" y="1" relative="1" as="geometry">
            <mxPoint x="12" y="-8" as="offset" />
          </mxGeometry>
        </mxCell>
        <mxCell id="IrhAmNefoeoScViRbf2u-18" value="" style="ellipse;whiteSpace=wrap;html=1;rounded=0;fillColor=#000000;" parent="1" vertex="1">
          <mxGeometry x="160" y="698.75" width="10" height="10" as="geometry" />
        </mxCell>
        <mxCell id="IrhAmNefoeoScViRbf2u-19" value="" style="endArrow=none;html=1;rounded=0;" parent="1" edge="1">
          <mxGeometry width="50" height="50" relative="1" as="geometry">
            <mxPoint x="170" y="703.6899999999999" as="sourcePoint" />
            <mxPoint x="250" y="703.6899999999999" as="targetPoint" />
          </mxGeometry>
        </mxCell>
        <mxCell id="IrhAmNefoeoScViRbf2u-20" value="Id_item" style="edgeLabel;html=1;align=center;verticalAlign=middle;resizable=0;points=[];labelBackgroundColor=none;" parent="IrhAmNefoeoScViRbf2u-19" vertex="1" connectable="0">
          <mxGeometry x="-0.382" y="1" relative="1" as="geometry">
            <mxPoint x="5" y="-8" as="offset" />
          </mxGeometry>
        </mxCell>
        <mxCell id="IrhAmNefoeoScViRbf2u-21" value="" style="ellipse;whiteSpace=wrap;html=1;rounded=0;fillColor=#000000;" parent="1" vertex="1">
          <mxGeometry x="550" y="698.75" width="10" height="10" as="geometry" />
        </mxCell>
        <mxCell id="IrhAmNefoeoScViRbf2u-22" value="" style="endArrow=none;html=1;rounded=0;" parent="1" edge="1">
          <mxGeometry width="50" height="50" relative="1" as="geometry">
            <mxPoint x="560" y="703.69" as="sourcePoint" />
            <mxPoint x="640" y="703.69" as="targetPoint" />
            <Array as="points">
              <mxPoint x="600" y="703.5" />
            </Array>
          </mxGeometry>
        </mxCell>
        <mxCell id="IrhAmNefoeoScViRbf2u-23" value="Id_cardapio" style="edgeLabel;html=1;align=center;verticalAlign=middle;resizable=0;points=[];labelBackgroundColor=none;" parent="IrhAmNefoeoScViRbf2u-22" vertex="1" connectable="0">
          <mxGeometry x="-0.382" y="1" relative="1" as="geometry">
            <mxPoint x="5" y="-7" as="offset" />
          </mxGeometry>
        </mxCell>
        <mxCell id="IrhAmNefoeoScViRbf2u-24" value="" style="ellipse;whiteSpace=wrap;html=1;rounded=0;fillColor=#000000;" parent="1" vertex="1">
          <mxGeometry x="324" y="558.75" width="10" height="10" as="geometry" />
        </mxCell>
        <mxCell id="IrhAmNefoeoScViRbf2u-25" value="" style="endArrow=none;html=1;rounded=0;" parent="1" edge="1">
          <mxGeometry width="50" height="50" relative="1" as="geometry">
            <mxPoint x="334" y="563.69" as="sourcePoint" />
            <mxPoint x="414" y="563.69" as="targetPoint" />
            <Array as="points" />
          </mxGeometry>
        </mxCell>
        <mxCell id="IrhAmNefoeoScViRbf2u-26" value="Id_restaurante" style="edgeLabel;html=1;align=center;verticalAlign=middle;resizable=0;points=[];labelBackgroundColor=none;" parent="IrhAmNefoeoScViRbf2u-25" vertex="1" connectable="0">
          <mxGeometry x="-0.382" y="1" relative="1" as="geometry">
            <mxPoint x="12" y="-8" as="offset" />
          </mxGeometry>
        </mxCell>
        <mxCell id="IrhAmNefoeoScViRbf2u-31" value="" style="ellipse;whiteSpace=wrap;html=1;rounded=0;fillColor=#FFFFFF;" parent="1" vertex="1">
          <mxGeometry x="-505" y="620" width="10" height="10" as="geometry" />
        </mxCell>
        <mxCell id="IrhAmNefoeoScViRbf2u-32" value="" style="endArrow=none;html=1;rounded=0;" parent="1" edge="1">
          <mxGeometry width="50" height="50" relative="1" as="geometry">
            <mxPoint x="-495" y="624.94" as="sourcePoint" />
            <mxPoint x="-415" y="624.94" as="targetPoint" />
            <Array as="points">
              <mxPoint x="-460" y="625" />
            </Array>
          </mxGeometry>
        </mxCell>
        <mxCell id="IrhAmNefoeoScViRbf2u-33" value="progresso" style="edgeLabel;html=1;align=center;verticalAlign=middle;resizable=0;points=[];labelBackgroundColor=none;" parent="IrhAmNefoeoScViRbf2u-32" vertex="1" connectable="0">
          <mxGeometry x="-0.382" y="1" relative="1" as="geometry">
            <mxPoint x="10" y="-7" as="offset" />
          </mxGeometry>
        </mxCell>
        <mxCell id="IrhAmNefoeoScViRbf2u-34" value="" style="ellipse;whiteSpace=wrap;html=1;rounded=0;fillColor=#FFFFFF;" parent="1" vertex="1">
          <mxGeometry x="-505" y="640" width="10" height="10" as="geometry" />
        </mxCell>
        <mxCell id="IrhAmNefoeoScViRbf2u-35" value="" style="endArrow=none;html=1;rounded=0;" parent="1" edge="1">
          <mxGeometry width="50" height="50" relative="1" as="geometry">
            <mxPoint x="-495" y="644.94" as="sourcePoint" />
            <mxPoint x="-415" y="644.94" as="targetPoint" />
            <Array as="points">
              <mxPoint x="-460" y="645" />
            </Array>
          </mxGeometry>
        </mxCell>
        <mxCell id="IrhAmNefoeoScViRbf2u-36" value="descricao" style="edgeLabel;html=1;align=center;verticalAlign=middle;resizable=0;points=[];labelBackgroundColor=none;" parent="IrhAmNefoeoScViRbf2u-35" vertex="1" connectable="0">
          <mxGeometry x="-0.382" y="1" relative="1" as="geometry">
            <mxPoint x="10" y="-7" as="offset" />
          </mxGeometry>
        </mxCell>
        <mxCell id="IrhAmNefoeoScViRbf2u-37" value="" style="ellipse;whiteSpace=wrap;html=1;rounded=0;fillColor=#FFFFFF;" parent="1" vertex="1">
          <mxGeometry x="160" y="718.75" width="10" height="10" as="geometry" />
        </mxCell>
        <mxCell id="IrhAmNefoeoScViRbf2u-38" value="" style="endArrow=none;html=1;rounded=0;" parent="1" edge="1">
          <mxGeometry width="50" height="50" relative="1" as="geometry">
            <mxPoint x="170" y="723.6900000000002" as="sourcePoint" />
            <mxPoint x="250" y="723.6900000000002" as="targetPoint" />
            <Array as="points">
              <mxPoint x="205" y="723.75" />
            </Array>
          </mxGeometry>
        </mxCell>
        <mxCell id="IrhAmNefoeoScViRbf2u-39" value="quantidade" style="edgeLabel;html=1;align=center;verticalAlign=middle;resizable=0;points=[];labelBackgroundColor=none;" parent="IrhAmNefoeoScViRbf2u-38" vertex="1" connectable="0">
          <mxGeometry x="-0.382" y="1" relative="1" as="geometry">
            <mxPoint x="10" y="-5" as="offset" />
          </mxGeometry>
        </mxCell>
        <mxCell id="IrhAmNefoeoScViRbf2u-40" value="" style="ellipse;whiteSpace=wrap;html=1;rounded=0;fillColor=#FFFFFF;" parent="1" vertex="1">
          <mxGeometry x="160" y="748.75" width="10" height="10" as="geometry" />
        </mxCell>
        <mxCell id="IrhAmNefoeoScViRbf2u-41" value="" style="endArrow=none;html=1;rounded=0;" parent="1" edge="1">
          <mxGeometry width="50" height="50" relative="1" as="geometry">
            <mxPoint x="170" y="753.6900000000002" as="sourcePoint" />
            <mxPoint x="250" y="753.6900000000002" as="targetPoint" />
            <Array as="points">
              <mxPoint x="205" y="753.75" />
            </Array>
          </mxGeometry>
        </mxCell>
        <mxCell id="IrhAmNefoeoScViRbf2u-42" value="tipo" style="edgeLabel;html=1;align=center;verticalAlign=middle;resizable=0;points=[];labelBackgroundColor=none;" parent="IrhAmNefoeoScViRbf2u-41" vertex="1" connectable="0">
          <mxGeometry x="-0.382" y="1" relative="1" as="geometry">
            <mxPoint x="10" y="-5" as="offset" />
          </mxGeometry>
        </mxCell>
        <mxCell id="IrhAmNefoeoScViRbf2u-43" value="" style="ellipse;whiteSpace=wrap;html=1;rounded=0;fillColor=#FFFFFF;" parent="1" vertex="1">
          <mxGeometry x="550" y="718.75" width="10" height="10" as="geometry" />
        </mxCell>
        <mxCell id="IrhAmNefoeoScViRbf2u-44" value="" style="endArrow=none;html=1;rounded=0;" parent="1" edge="1">
          <mxGeometry width="50" height="50" relative="1" as="geometry">
            <mxPoint x="560" y="723.69" as="sourcePoint" />
            <mxPoint x="640" y="723.69" as="targetPoint" />
            <Array as="points">
              <mxPoint x="570" y="723.75" />
              <mxPoint x="595" y="723.75" />
            </Array>
          </mxGeometry>
        </mxCell>
        <mxCell id="IrhAmNefoeoScViRbf2u-45" value="itens" style="edgeLabel;html=1;align=center;verticalAlign=middle;resizable=0;points=[];labelBackgroundColor=none;" parent="IrhAmNefoeoScViRbf2u-44" vertex="1" connectable="0">
          <mxGeometry x="-0.382" y="1" relative="1" as="geometry">
            <mxPoint x="10" y="-5" as="offset" />
          </mxGeometry>
        </mxCell>
        <mxCell id="IrhAmNefoeoScViRbf2u-46" value="" style="ellipse;whiteSpace=wrap;html=1;rounded=0;fillColor=#FFFFFF;" parent="1" vertex="1">
          <mxGeometry x="550" y="748.75" width="10" height="10" as="geometry" />
        </mxCell>
        <mxCell id="IrhAmNefoeoScViRbf2u-47" value="" style="endArrow=none;html=1;rounded=0;" parent="1" edge="1">
          <mxGeometry width="50" height="50" relative="1" as="geometry">
            <mxPoint x="560" y="753.6900000000002" as="sourcePoint" />
            <mxPoint x="640" y="753.6900000000002" as="targetPoint" />
            <Array as="points">
              <mxPoint x="570" y="753.75" />
              <mxPoint x="580" y="753.75" />
              <mxPoint x="595" y="753.75" />
            </Array>
          </mxGeometry>
        </mxCell>
        <mxCell id="IrhAmNefoeoScViRbf2u-48" value="quantidade_itens" style="edgeLabel;html=1;align=center;verticalAlign=middle;resizable=0;points=[];labelBackgroundColor=none;" parent="IrhAmNefoeoScViRbf2u-47" vertex="1" connectable="0">
          <mxGeometry x="-0.382" y="1" relative="1" as="geometry">
            <mxPoint x="10" y="-10" as="offset" />
          </mxGeometry>
        </mxCell>
        <mxCell id="b9xJRUf1RVcOAnPKbmVs-10" value="" style="edgeStyle=orthogonalEdgeStyle;rounded=0;orthogonalLoop=1;jettySize=auto;html=1;endArrow=none;endFill=0;" parent="1" source="b9xJRUf1RVcOAnPKbmVs-3" target="b9xJRUf1RVcOAnPKbmVs-9" edge="1">
          <mxGeometry relative="1" as="geometry">
            <Array as="points">
              <mxPoint x="240" y="305" />
            </Array>
          </mxGeometry>
        </mxCell>
        <mxCell id="b9xJRUf1RVcOAnPKbmVs-3" value="Entregadores" style="rounded=0;whiteSpace=wrap;html=1;" parent="1" vertex="1">
          <mxGeometry x="180" y="180" width="120" height="60" as="geometry" />
        </mxCell>
        <mxCell id="b9xJRUf1RVcOAnPKbmVs-6" style="edgeStyle=orthogonalEdgeStyle;rounded=0;orthogonalLoop=1;jettySize=auto;html=1;entryX=0.5;entryY=0;entryDx=0;entryDy=0;endArrow=none;endFill=0;" parent="1" source="b9xJRUf1RVcOAnPKbmVs-4" target="b9xJRUf1RVcOAnPKbmVs-3" edge="1">
          <mxGeometry relative="1" as="geometry" />
        </mxCell>
        <mxCell id="b9xJRUf1RVcOAnPKbmVs-24" style="edgeStyle=orthogonalEdgeStyle;rounded=0;orthogonalLoop=1;jettySize=auto;html=1;exitX=0.5;exitY=0;exitDx=0;exitDy=0;endArrow=none;endFill=0;" parent="1" source="b9xJRUf1RVcOAnPKbmVs-4" edge="1">
          <mxGeometry relative="1" as="geometry">
            <mxPoint x="420" y="80" as="targetPoint" />
            <Array as="points">
              <mxPoint x="390" y="80" />
              <mxPoint x="390" y="80" />
            </Array>
          </mxGeometry>
        </mxCell>
        <mxCell id="b9xJRUf1RVcOAnPKbmVs-4" value="Tem" style="rhombus;whiteSpace=wrap;html=1;" parent="1" vertex="1">
          <mxGeometry x="200" y="80" width="80" height="50" as="geometry" />
        </mxCell>
        <mxCell id="b9xJRUf1RVcOAnPKbmVs-9" value="Entrega" style="rhombus;whiteSpace=wrap;html=1;rounded=0;" parent="1" vertex="1">
          <mxGeometry x="130" y="280" width="80" height="50" as="geometry" />
        </mxCell>
        <mxCell id="b9xJRUf1RVcOAnPKbmVs-11" style="edgeStyle=orthogonalEdgeStyle;rounded=0;orthogonalLoop=1;jettySize=auto;html=1;exitX=0.5;exitY=1;exitDx=0;exitDy=0;endArrow=none;endFill=0;" parent="1" source="b9xJRUf1RVcOAnPKbmVs-9" target="b9xJRUf1RVcOAnPKbmVs-9" edge="1">
          <mxGeometry relative="1" as="geometry" />
        </mxCell>
        <mxCell id="b9xJRUf1RVcOAnPKbmVs-19" value="" style="edgeStyle=orthogonalEdgeStyle;rounded=0;orthogonalLoop=1;jettySize=auto;html=1;endArrow=none;endFill=0;" parent="1" source="b9xJRUf1RVcOAnPKbmVs-16" target="b9xJRUf1RVcOAnPKbmVs-18" edge="1">
          <mxGeometry relative="1" as="geometry" />
        </mxCell>
        <mxCell id="b9xJRUf1RVcOAnPKbmVs-16" value="Da" style="rhombus;whiteSpace=wrap;html=1;rounded=0;" parent="1" vertex="1">
          <mxGeometry x="434" y="-100" width="80" height="48.75" as="geometry" />
        </mxCell>
        <mxCell id="b9xJRUf1RVcOAnPKbmVs-22" value="" style="edgeStyle=orthogonalEdgeStyle;rounded=0;orthogonalLoop=1;jettySize=auto;html=1;endArrow=none;endFill=0;" parent="1" source="b9xJRUf1RVcOAnPKbmVs-18" target="b9xJRUf1RVcOAnPKbmVs-21" edge="1">
          <mxGeometry relative="1" as="geometry" />
        </mxCell>
        <mxCell id="b9xJRUf1RVcOAnPKbmVs-18" value="Cupom" style="whiteSpace=wrap;html=1;rounded=0;" parent="1" vertex="1">
          <mxGeometry x="254" y="-105.625" width="120" height="60" as="geometry" />
        </mxCell>
        <mxCell id="b9xJRUf1RVcOAnPKbmVs-23" style="edgeStyle=orthogonalEdgeStyle;rounded=0;orthogonalLoop=1;jettySize=auto;html=1;exitX=0;exitY=0.5;exitDx=0;exitDy=0;entryX=0.5;entryY=0;entryDx=0;entryDy=0;endArrow=none;endFill=0;" parent="1" source="b9xJRUf1RVcOAnPKbmVs-21" target="yU-a4sMeyM81T8pN_S2K-22" edge="1">
          <mxGeometry relative="1" as="geometry" />
        </mxCell>
        <mxCell id="b9xJRUf1RVcOAnPKbmVs-21" value="possui" style="rhombus;whiteSpace=wrap;html=1;rounded=0;" parent="1" vertex="1">
          <mxGeometry x="70" y="-98.44" width="80" height="45.63" as="geometry" />
        </mxCell>
        <mxCell id="b9xJRUf1RVcOAnPKbmVs-25" value="Tem" style="rhombus;whiteSpace=wrap;html=1;" parent="1" vertex="1">
          <mxGeometry x="-160" y="388.75" width="80" height="50" as="geometry" />
        </mxCell>
        <mxCell id="b9xJRUf1RVcOAnPKbmVs-26" value="Itens_pedido" style="rounded=0;whiteSpace=wrap;html=1;" parent="1" vertex="1">
          <mxGeometry x="-140" y="700" width="120" height="60" as="geometry" />
        </mxCell>
        <mxCell id="fdX4hyj6OW9Jkt6rQhxo-2" value="Possui" style="rhombus;whiteSpace=wrap;html=1;rounded=0;" parent="1" vertex="1">
          <mxGeometry x="-250" y="590" width="80" height="60" as="geometry" />
        </mxCell>
        <mxCell id="fdX4hyj6OW9Jkt6rQhxo-6" value="" style="edgeStyle=orthogonalEdgeStyle;rounded=0;orthogonalLoop=1;jettySize=auto;html=1;endArrow=none;endFill=0;" parent="1" source="fdX4hyj6OW9Jkt6rQhxo-4" target="fdX4hyj6OW9Jkt6rQhxo-5" edge="1">
          <mxGeometry relative="1" as="geometry" />
        </mxCell>
        <mxCell id="fdX4hyj6OW9Jkt6rQhxo-4" value="" style="rhombus;whiteSpace=wrap;html=1;gradientColor=#ffffff;fillColor=none;" parent="1" vertex="1">
          <mxGeometry x="-260" y="580" width="100" height="80" as="geometry" />
        </mxCell>
        <mxCell id="fdX4hyj6OW9Jkt6rQhxo-5" value="Descricao" style="whiteSpace=wrap;html=1;fillColor=none;gradientColor=#ffffff;" parent="1" vertex="1">
          <mxGeometry x="-270" y="860" width="120" height="60" as="geometry" />
        </mxCell>
        <mxCell id="fdX4hyj6OW9Jkt6rQhxo-7" value="" style="rounded=0;whiteSpace=wrap;html=1;fillColor=none;gradientColor=#ffffff;" parent="1" vertex="1">
          <mxGeometry x="-280" y="850" width="140" height="80" as="geometry" />
        </mxCell>
        <mxCell id="RSmTtIbRY1pTEMsp-v9p-1" value="" style="ellipse;whiteSpace=wrap;html=1;rounded=0;" parent="1" vertex="1">
          <mxGeometry x="-300" y="490" width="10" height="10" as="geometry" />
        </mxCell>
        <mxCell id="RSmTtIbRY1pTEMsp-v9p-2" value="" style="endArrow=none;html=1;rounded=0;" parent="1" edge="1">
          <mxGeometry width="50" height="50" relative="1" as="geometry">
            <mxPoint x="-290" y="494.94000000000005" as="sourcePoint" />
            <mxPoint x="-210" y="494.94000000000005" as="targetPoint" />
          </mxGeometry>
        </mxCell>
        <mxCell id="RSmTtIbRY1pTEMsp-v9p-3" value="valor" style="edgeLabel;html=1;align=center;verticalAlign=middle;resizable=0;points=[];labelBackgroundColor=none;" parent="RSmTtIbRY1pTEMsp-v9p-2" vertex="1" connectable="0">
          <mxGeometry x="-0.382" y="1" relative="1" as="geometry">
            <mxPoint x="6" y="-7" as="offset" />
          </mxGeometry>
        </mxCell>
        <mxCell id="RSmTtIbRY1pTEMsp-v9p-7" value="" style="ellipse;whiteSpace=wrap;html=1;rounded=0;" parent="1" vertex="1">
          <mxGeometry x="-300" y="509" width="10" height="10" as="geometry" />
        </mxCell>
        <mxCell id="RSmTtIbRY1pTEMsp-v9p-8" value="" style="endArrow=none;html=1;rounded=0;" parent="1" edge="1">
          <mxGeometry width="50" height="50" relative="1" as="geometry">
            <mxPoint x="-290" y="513.94" as="sourcePoint" />
            <mxPoint x="-210" y="513.94" as="targetPoint" />
          </mxGeometry>
        </mxCell>
        <mxCell id="RSmTtIbRY1pTEMsp-v9p-9" value="hora_pedido" style="edgeLabel;html=1;align=center;verticalAlign=middle;resizable=0;points=[];labelBackgroundColor=none;" parent="RSmTtIbRY1pTEMsp-v9p-8" vertex="1" connectable="0">
          <mxGeometry x="-0.382" y="1" relative="1" as="geometry">
            <mxPoint x="6" y="-7" as="offset" />
          </mxGeometry>
        </mxCell>
        <mxCell id="RSmTtIbRY1pTEMsp-v9p-10" value="" style="ellipse;whiteSpace=wrap;html=1;rounded=0;" parent="1" vertex="1">
          <mxGeometry x="-520" y="280" width="10" height="10" as="geometry" />
        </mxCell>
        <mxCell id="RSmTtIbRY1pTEMsp-v9p-11" value="" style="endArrow=none;html=1;rounded=0;" parent="1" edge="1">
          <mxGeometry width="50" height="50" relative="1" as="geometry">
            <mxPoint x="-510" y="284.9400000000003" as="sourcePoint" />
            <mxPoint x="-430" y="284.9400000000003" as="targetPoint" />
          </mxGeometry>
        </mxCell>
        <mxCell id="RSmTtIbRY1pTEMsp-v9p-12" value="nome_cartao" style="edgeLabel;html=1;align=center;verticalAlign=middle;resizable=0;points=[];labelBackgroundColor=none;" parent="RSmTtIbRY1pTEMsp-v9p-11" vertex="1" connectable="0">
          <mxGeometry x="-0.382" y="1" relative="1" as="geometry">
            <mxPoint x="11" y="-8" as="offset" />
          </mxGeometry>
        </mxCell>
        <mxCell id="RSmTtIbRY1pTEMsp-v9p-13" value="" style="ellipse;whiteSpace=wrap;html=1;rounded=0;" parent="1" vertex="1">
          <mxGeometry x="-520" y="300" width="10" height="10" as="geometry" />
        </mxCell>
        <mxCell id="RSmTtIbRY1pTEMsp-v9p-14" value="" style="endArrow=none;html=1;rounded=0;" parent="1" edge="1">
          <mxGeometry width="50" height="50" relative="1" as="geometry">
            <mxPoint x="-510" y="304.9400000000003" as="sourcePoint" />
            <mxPoint x="-430" y="304.9400000000003" as="targetPoint" />
          </mxGeometry>
        </mxCell>
        <mxCell id="RSmTtIbRY1pTEMsp-v9p-15" value="validade" style="edgeLabel;html=1;align=center;verticalAlign=middle;resizable=0;points=[];labelBackgroundColor=none;" parent="RSmTtIbRY1pTEMsp-v9p-14" vertex="1" connectable="0">
          <mxGeometry x="-0.382" y="1" relative="1" as="geometry">
            <mxPoint x="6" y="-7" as="offset" />
          </mxGeometry>
        </mxCell>
        <mxCell id="RSmTtIbRY1pTEMsp-v9p-22" value="" style="ellipse;whiteSpace=wrap;html=1;rounded=0;fillColor=#000000;" parent="1" vertex="1">
          <mxGeometry x="164" y="-98.44" width="10" height="10" as="geometry" />
        </mxCell>
        <mxCell id="RSmTtIbRY1pTEMsp-v9p-23" value="" style="endArrow=none;html=1;rounded=0;" parent="1" edge="1">
          <mxGeometry width="50" height="50" relative="1" as="geometry">
            <mxPoint x="174" y="-93.49999999999994" as="sourcePoint" />
            <mxPoint x="254" y="-93.49999999999994" as="targetPoint" />
          </mxGeometry>
        </mxCell>
        <mxCell id="RSmTtIbRY1pTEMsp-v9p-24" value="Id_Cupom" style="edgeLabel;html=1;align=center;verticalAlign=middle;resizable=0;points=[];labelBackgroundColor=none;" parent="RSmTtIbRY1pTEMsp-v9p-23" vertex="1" connectable="0">
          <mxGeometry x="-0.382" y="1" relative="1" as="geometry">
            <mxPoint x="5" y="-7" as="offset" />
          </mxGeometry>
        </mxCell>
        <mxCell id="RSmTtIbRY1pTEMsp-v9p-25" value="" style="ellipse;whiteSpace=wrap;html=1;rounded=0;" parent="1" vertex="1">
          <mxGeometry x="164" y="-78.44" width="10" height="10" as="geometry" />
        </mxCell>
        <mxCell id="RSmTtIbRY1pTEMsp-v9p-26" value="" style="endArrow=none;html=1;rounded=0;" parent="1" edge="1">
          <mxGeometry width="50" height="50" relative="1" as="geometry">
            <mxPoint x="174" y="-73.49999999999972" as="sourcePoint" />
            <mxPoint x="254" y="-73.49999999999972" as="targetPoint" />
          </mxGeometry>
        </mxCell>
        <mxCell id="RSmTtIbRY1pTEMsp-v9p-27" value="tipo_cupom" style="edgeLabel;html=1;align=center;verticalAlign=middle;resizable=0;points=[];labelBackgroundColor=none;" parent="RSmTtIbRY1pTEMsp-v9p-26" vertex="1" connectable="0">
          <mxGeometry x="-0.382" y="1" relative="1" as="geometry">
            <mxPoint x="6" y="-10" as="offset" />
          </mxGeometry>
        </mxCell>
        <mxCell id="RSmTtIbRY1pTEMsp-v9p-28" value="" style="ellipse;whiteSpace=wrap;html=1;rounded=0;" parent="1" vertex="1">
          <mxGeometry x="164" y="-58.44" width="10" height="10" as="geometry" />
        </mxCell>
        <mxCell id="RSmTtIbRY1pTEMsp-v9p-29" value="" style="endArrow=none;html=1;rounded=0;" parent="1" edge="1">
          <mxGeometry width="50" height="50" relative="1" as="geometry">
            <mxPoint x="174" y="-53.499999999999716" as="sourcePoint" />
            <mxPoint x="254" y="-53.499999999999716" as="targetPoint" />
          </mxGeometry>
        </mxCell>
        <mxCell id="RSmTtIbRY1pTEMsp-v9p-30" value="porcentagem" style="edgeLabel;html=1;align=center;verticalAlign=middle;resizable=0;points=[];labelBackgroundColor=none;" parent="RSmTtIbRY1pTEMsp-v9p-29" vertex="1" connectable="0">
          <mxGeometry x="-0.382" y="1" relative="1" as="geometry">
            <mxPoint x="10" y="-7" as="offset" />
          </mxGeometry>
        </mxCell>
        <mxCell id="RSmTtIbRY1pTEMsp-v9p-40" value="" style="ellipse;whiteSpace=wrap;html=1;rounded=0;fillColor=#000000;" parent="1" vertex="1">
          <mxGeometry x="-230" y="705" width="10" height="10" as="geometry" />
        </mxCell>
        <mxCell id="RSmTtIbRY1pTEMsp-v9p-41" value="" style="endArrow=none;html=1;rounded=0;" parent="1" edge="1">
          <mxGeometry width="50" height="50" relative="1" as="geometry">
            <mxPoint x="-220" y="709.94" as="sourcePoint" />
            <mxPoint x="-140" y="709.94" as="targetPoint" />
          </mxGeometry>
        </mxCell>
        <mxCell id="RSmTtIbRY1pTEMsp-v9p-42" value="id_itensp" style="edgeLabel;html=1;align=center;verticalAlign=middle;resizable=0;points=[];labelBackgroundColor=none;" parent="RSmTtIbRY1pTEMsp-v9p-41" vertex="1" connectable="0">
          <mxGeometry x="-0.382" y="1" relative="1" as="geometry">
            <mxPoint x="8" y="-7" as="offset" />
          </mxGeometry>
        </mxCell>
        <mxCell id="RSmTtIbRY1pTEMsp-v9p-43" value="" style="ellipse;whiteSpace=wrap;html=1;rounded=0;" parent="1" vertex="1">
          <mxGeometry x="-230" y="725" width="10" height="10" as="geometry" />
        </mxCell>
        <mxCell id="RSmTtIbRY1pTEMsp-v9p-44" value="" style="endArrow=none;html=1;rounded=0;" parent="1" edge="1">
          <mxGeometry width="50" height="50" relative="1" as="geometry">
            <mxPoint x="-220" y="729.9400000000003" as="sourcePoint" />
            <mxPoint x="-140" y="729.9400000000003" as="targetPoint" />
          </mxGeometry>
        </mxCell>
        <mxCell id="RSmTtIbRY1pTEMsp-v9p-45" value="bebida" style="edgeLabel;html=1;align=center;verticalAlign=middle;resizable=0;points=[];labelBackgroundColor=none;" parent="RSmTtIbRY1pTEMsp-v9p-44" vertex="1" connectable="0">
          <mxGeometry x="-0.382" y="1" relative="1" as="geometry">
            <mxPoint x="6" y="-7" as="offset" />
          </mxGeometry>
        </mxCell>
        <mxCell id="RSmTtIbRY1pTEMsp-v9p-46" value="" style="ellipse;whiteSpace=wrap;html=1;rounded=0;" parent="1" vertex="1">
          <mxGeometry x="-230" y="745" width="10" height="10" as="geometry" />
        </mxCell>
        <mxCell id="RSmTtIbRY1pTEMsp-v9p-47" value="" style="endArrow=none;html=1;rounded=0;" parent="1" edge="1">
          <mxGeometry width="50" height="50" relative="1" as="geometry">
            <mxPoint x="-220" y="749.9400000000003" as="sourcePoint" />
            <mxPoint x="-140" y="749.9400000000003" as="targetPoint" />
          </mxGeometry>
        </mxCell>
        <mxCell id="RSmTtIbRY1pTEMsp-v9p-48" value="comida" style="edgeLabel;html=1;align=center;verticalAlign=middle;resizable=0;points=[];labelBackgroundColor=none;" parent="RSmTtIbRY1pTEMsp-v9p-47" vertex="1" connectable="0">
          <mxGeometry x="-0.382" y="1" relative="1" as="geometry">
            <mxPoint x="6" y="-7" as="offset" />
          </mxGeometry>
        </mxCell>
        <mxCell id="tpqvVLc9ye1XpccJ62tb-2" value="" style="ellipse;whiteSpace=wrap;html=1;rounded=0;fillColor=#000000;" vertex="1" parent="1">
          <mxGeometry x="-280" y="320" width="10" height="10" as="geometry" />
        </mxCell>
        <mxCell id="tpqvVLc9ye1XpccJ62tb-3" value="" style="endArrow=none;html=1;rounded=0;" edge="1" parent="1">
          <mxGeometry width="50" height="50" relative="1" as="geometry">
            <mxPoint x="-270" y="324.94000000000005" as="sourcePoint" />
            <mxPoint x="-190" y="324.94000000000005" as="targetPoint" />
          </mxGeometry>
        </mxCell>
        <mxCell id="tpqvVLc9ye1XpccJ62tb-4" value="Id_avaliação" style="edgeLabel;html=1;align=center;verticalAlign=middle;resizable=0;points=[];labelBackgroundColor=none;" vertex="1" connectable="0" parent="tpqvVLc9ye1XpccJ62tb-3">
          <mxGeometry x="-0.382" y="1" relative="1" as="geometry">
            <mxPoint x="5" y="-7" as="offset" />
          </mxGeometry>
        </mxCell>
        <mxCell id="tpqvVLc9ye1XpccJ62tb-5" value="" style="ellipse;whiteSpace=wrap;html=1;rounded=0;" vertex="1" parent="1">
          <mxGeometry x="-280" y="340" width="10" height="10" as="geometry" />
        </mxCell>
        <mxCell id="tpqvVLc9ye1XpccJ62tb-6" value="" style="endArrow=none;html=1;rounded=0;" edge="1" parent="1">
          <mxGeometry width="50" height="50" relative="1" as="geometry">
            <mxPoint x="-270" y="344.94000000000005" as="sourcePoint" />
            <mxPoint x="-190" y="344.94000000000005" as="targetPoint" />
          </mxGeometry>
        </mxCell>
        <mxCell id="tpqvVLc9ye1XpccJ62tb-7" value="Id_usuario" style="edgeLabel;html=1;align=center;verticalAlign=middle;resizable=0;points=[];labelBackgroundColor=none;" vertex="1" connectable="0" parent="tpqvVLc9ye1XpccJ62tb-6">
          <mxGeometry x="-0.382" y="1" relative="1" as="geometry">
            <mxPoint x="6" y="-7" as="offset" />
          </mxGeometry>
        </mxCell>
        <mxCell id="tpqvVLc9ye1XpccJ62tb-8" value="" style="ellipse;whiteSpace=wrap;html=1;rounded=0;" vertex="1" parent="1">
          <mxGeometry x="-280" y="359" width="10" height="10" as="geometry" />
        </mxCell>
        <mxCell id="tpqvVLc9ye1XpccJ62tb-9" value="" style="endArrow=none;html=1;rounded=0;" edge="1" parent="1">
          <mxGeometry width="50" height="50" relative="1" as="geometry">
            <mxPoint x="-270" y="363.94000000000005" as="sourcePoint" />
            <mxPoint x="-190" y="363.94000000000005" as="targetPoint" />
          </mxGeometry>
        </mxCell>
        <mxCell id="tpqvVLc9ye1XpccJ62tb-10" value="pontuaçao" style="edgeLabel;html=1;align=center;verticalAlign=middle;resizable=0;points=[];labelBackgroundColor=none;" vertex="1" connectable="0" parent="tpqvVLc9ye1XpccJ62tb-9">
          <mxGeometry x="-0.382" y="1" relative="1" as="geometry">
            <mxPoint x="6" y="-7" as="offset" />
          </mxGeometry>
        </mxCell>
        <mxCell id="tpqvVLc9ye1XpccJ62tb-13" value="" style="endArrow=none;html=1;rounded=0;" edge="1" parent="1">
          <mxGeometry width="50" height="50" relative="1" as="geometry">
            <mxPoint x="-260" y="-74.93999999999994" as="sourcePoint" />
            <mxPoint x="-180" y="-74.93999999999994" as="targetPoint" />
          </mxGeometry>
        </mxCell>
        <mxCell id="tpqvVLc9ye1XpccJ62tb-14" value="Nome" style="edgeLabel;html=1;align=center;verticalAlign=middle;resizable=0;points=[];labelBackgroundColor=none;" vertex="1" connectable="0" parent="tpqvVLc9ye1XpccJ62tb-13">
          <mxGeometry x="-0.382" y="1" relative="1" as="geometry">
            <mxPoint x="6" y="-7" as="offset" />
          </mxGeometry>
        </mxCell>
        <mxCell id="tpqvVLc9ye1XpccJ62tb-96" value="Nome" style="edgeLabel;html=1;align=center;verticalAlign=middle;resizable=0;points=[];labelBackgroundColor=none;" vertex="1" connectable="0" parent="tpqvVLc9ye1XpccJ62tb-13">
          <mxGeometry x="-0.382" y="1" relative="1" as="geometry">
            <mxPoint x="6" y="-7" as="offset" />
          </mxGeometry>
        </mxCell>
        <mxCell id="tpqvVLc9ye1XpccJ62tb-15" value="" style="ellipse;whiteSpace=wrap;html=1;rounded=0;" vertex="1" parent="1">
          <mxGeometry x="-270" y="-56.879999999999995" width="10" height="10" as="geometry" />
        </mxCell>
        <mxCell id="tpqvVLc9ye1XpccJ62tb-16" value="" style="endArrow=none;html=1;rounded=0;" edge="1" parent="1">
          <mxGeometry width="50" height="50" relative="1" as="geometry">
            <mxPoint x="-260" y="-51.93999999999994" as="sourcePoint" />
            <mxPoint x="-180" y="-51.93999999999994" as="targetPoint" />
          </mxGeometry>
        </mxCell>
        <mxCell id="tpqvVLc9ye1XpccJ62tb-17" value="Login" style="edgeLabel;html=1;align=center;verticalAlign=middle;resizable=0;points=[];labelBackgroundColor=none;" vertex="1" connectable="0" parent="tpqvVLc9ye1XpccJ62tb-16">
          <mxGeometry x="-0.382" y="1" relative="1" as="geometry">
            <mxPoint x="6" y="-7" as="offset" />
          </mxGeometry>
        </mxCell>
        <mxCell id="tpqvVLc9ye1XpccJ62tb-18" value="" style="ellipse;whiteSpace=wrap;html=1;rounded=0;" vertex="1" parent="1">
          <mxGeometry x="324" y="299.75" width="10" height="10" as="geometry" />
        </mxCell>
        <mxCell id="tpqvVLc9ye1XpccJ62tb-19" value="" style="endArrow=none;html=1;rounded=0;" edge="1" parent="1">
          <mxGeometry width="50" height="50" relative="1" as="geometry">
            <mxPoint x="334" y="304.69000000000005" as="sourcePoint" />
            <mxPoint x="414" y="304.69000000000005" as="targetPoint" />
          </mxGeometry>
        </mxCell>
        <mxCell id="tpqvVLc9ye1XpccJ62tb-20" value="tipo_categoria" style="edgeLabel;html=1;align=center;verticalAlign=middle;resizable=0;points=[];labelBackgroundColor=none;" vertex="1" connectable="0" parent="tpqvVLc9ye1XpccJ62tb-19">
          <mxGeometry x="-0.382" y="1" relative="1" as="geometry">
            <mxPoint x="11" y="-7" as="offset" />
          </mxGeometry>
        </mxCell>
        <mxCell id="tpqvVLc9ye1XpccJ62tb-21" value="" style="ellipse;whiteSpace=wrap;html=1;rounded=0;" vertex="1" parent="1">
          <mxGeometry x="324" y="325.75" width="10" height="10" as="geometry" />
        </mxCell>
        <mxCell id="tpqvVLc9ye1XpccJ62tb-22" value="" style="endArrow=none;html=1;rounded=0;" edge="1" parent="1">
          <mxGeometry width="50" height="50" relative="1" as="geometry">
            <mxPoint x="334" y="330.69000000000005" as="sourcePoint" />
            <mxPoint x="414" y="330.69000000000005" as="targetPoint" />
          </mxGeometry>
        </mxCell>
        <mxCell id="tpqvVLc9ye1XpccJ62tb-23" value="pontuação_categorias" style="edgeLabel;html=1;align=center;verticalAlign=middle;resizable=0;points=[];labelBackgroundColor=none;" vertex="1" connectable="0" parent="tpqvVLc9ye1XpccJ62tb-22">
          <mxGeometry x="-0.382" y="1" relative="1" as="geometry">
            <mxPoint y="-10" as="offset" />
          </mxGeometry>
        </mxCell>
        <mxCell id="tpqvVLc9ye1XpccJ62tb-24" value="" style="ellipse;whiteSpace=wrap;html=1;rounded=0;" vertex="1" parent="1">
          <mxGeometry x="324" y="576" width="10" height="10" as="geometry" />
        </mxCell>
        <mxCell id="tpqvVLc9ye1XpccJ62tb-25" value="" style="endArrow=none;html=1;rounded=0;" edge="1" parent="1">
          <mxGeometry width="50" height="50" relative="1" as="geometry">
            <mxPoint x="334" y="580.9400000000003" as="sourcePoint" />
            <mxPoint x="414" y="580.9400000000003" as="targetPoint" />
          </mxGeometry>
        </mxCell>
        <mxCell id="tpqvVLc9ye1XpccJ62tb-26" value="Tipo_restaurante" style="edgeLabel;html=1;align=center;verticalAlign=middle;resizable=0;points=[];labelBackgroundColor=none;" vertex="1" connectable="0" parent="tpqvVLc9ye1XpccJ62tb-25">
          <mxGeometry x="-0.382" y="1" relative="1" as="geometry">
            <mxPoint x="13" y="-8" as="offset" />
          </mxGeometry>
        </mxCell>
        <mxCell id="tpqvVLc9ye1XpccJ62tb-27" value="" style="ellipse;whiteSpace=wrap;html=1;rounded=0;" vertex="1" parent="1">
          <mxGeometry x="324" y="603" width="10" height="10" as="geometry" />
        </mxCell>
        <mxCell id="tpqvVLc9ye1XpccJ62tb-28" value="" style="endArrow=none;html=1;rounded=0;" edge="1" parent="1">
          <mxGeometry width="50" height="50" relative="1" as="geometry">
            <mxPoint x="334" y="607.94" as="sourcePoint" />
            <mxPoint x="414" y="607.94" as="targetPoint" />
          </mxGeometry>
        </mxCell>
        <mxCell id="tpqvVLc9ye1XpccJ62tb-29" value="horario_funcionamento" style="edgeLabel;html=1;align=center;verticalAlign=middle;resizable=0;points=[];labelBackgroundColor=none;" vertex="1" connectable="0" parent="tpqvVLc9ye1XpccJ62tb-28">
          <mxGeometry x="-0.382" y="1" relative="1" as="geometry">
            <mxPoint x="-3" y="-9" as="offset" />
          </mxGeometry>
        </mxCell>
        <mxCell id="tpqvVLc9ye1XpccJ62tb-30" value="" style="ellipse;whiteSpace=wrap;html=1;rounded=0;" vertex="1" parent="1">
          <mxGeometry x="-270" y="-40.379999999999995" width="10" height="10" as="geometry" />
        </mxCell>
        <mxCell id="tpqvVLc9ye1XpccJ62tb-31" value="" style="endArrow=none;html=1;rounded=0;" edge="1" parent="1">
          <mxGeometry width="50" height="50" relative="1" as="geometry">
            <mxPoint x="-260" y="-35.43999999999994" as="sourcePoint" />
            <mxPoint x="-180" y="-35.43999999999994" as="targetPoint" />
          </mxGeometry>
        </mxCell>
        <mxCell id="tpqvVLc9ye1XpccJ62tb-32" value="Endereço" style="edgeLabel;html=1;align=center;verticalAlign=middle;resizable=0;points=[];labelBackgroundColor=none;" vertex="1" connectable="0" parent="tpqvVLc9ye1XpccJ62tb-31">
          <mxGeometry x="-0.382" y="1" relative="1" as="geometry">
            <mxPoint x="6" y="-7" as="offset" />
          </mxGeometry>
        </mxCell>
        <mxCell id="tpqvVLc9ye1XpccJ62tb-33" value="" style="ellipse;whiteSpace=wrap;html=1;rounded=0;fillColor=none;" vertex="1" parent="1">
          <mxGeometry x="-360" y="868.75" width="10" height="10" as="geometry" />
        </mxCell>
        <mxCell id="tpqvVLc9ye1XpccJ62tb-34" value="" style="endArrow=none;html=1;rounded=0;" edge="1" parent="1">
          <mxGeometry width="50" height="50" relative="1" as="geometry">
            <mxPoint x="-350" y="873.6899999999998" as="sourcePoint" />
            <mxPoint x="-270" y="873.6899999999998" as="targetPoint" />
          </mxGeometry>
        </mxCell>
        <mxCell id="tpqvVLc9ye1XpccJ62tb-35" value="Observacao" style="edgeLabel;html=1;align=center;verticalAlign=middle;resizable=0;points=[];labelBackgroundColor=none;" vertex="1" connectable="0" parent="tpqvVLc9ye1XpccJ62tb-34">
          <mxGeometry x="-0.382" y="1" relative="1" as="geometry">
            <mxPoint x="10" y="-7" as="offset" />
          </mxGeometry>
        </mxCell>
        <mxCell id="tpqvVLc9ye1XpccJ62tb-36" value="" style="ellipse;whiteSpace=wrap;html=1;rounded=0;fillColor=#FFFFFF;" vertex="1" parent="1">
          <mxGeometry x="-360" y="888.75" width="10" height="10" as="geometry" />
        </mxCell>
        <mxCell id="tpqvVLc9ye1XpccJ62tb-37" value="" style="endArrow=none;html=1;rounded=0;" edge="1" parent="1">
          <mxGeometry width="50" height="50" relative="1" as="geometry">
            <mxPoint x="-350" y="893.6899999999998" as="sourcePoint" />
            <mxPoint x="-270" y="893.6899999999998" as="targetPoint" />
            <Array as="points">
              <mxPoint x="-315" y="893.75" />
            </Array>
          </mxGeometry>
        </mxCell>
        <mxCell id="tpqvVLc9ye1XpccJ62tb-38" value="id_pedido" style="edgeLabel;html=1;align=center;verticalAlign=middle;resizable=0;points=[];labelBackgroundColor=none;" vertex="1" connectable="0" parent="tpqvVLc9ye1XpccJ62tb-37">
          <mxGeometry x="-0.382" y="1" relative="1" as="geometry">
            <mxPoint x="10" y="-7" as="offset" />
          </mxGeometry>
        </mxCell>
        <mxCell id="tpqvVLc9ye1XpccJ62tb-39" value="" style="ellipse;whiteSpace=wrap;html=1;rounded=0;fillColor=#FFFFFF;" vertex="1" parent="1">
          <mxGeometry x="-360" y="908.75" width="10" height="10" as="geometry" />
        </mxCell>
        <mxCell id="tpqvVLc9ye1XpccJ62tb-40" value="" style="endArrow=none;html=1;rounded=0;" edge="1" parent="1">
          <mxGeometry width="50" height="50" relative="1" as="geometry">
            <mxPoint x="-350" y="913.6899999999998" as="sourcePoint" />
            <mxPoint x="-270" y="913.6899999999998" as="targetPoint" />
            <Array as="points">
              <mxPoint x="-315" y="913.75" />
            </Array>
          </mxGeometry>
        </mxCell>
        <mxCell id="tpqvVLc9ye1XpccJ62tb-41" value="hora" style="edgeLabel;html=1;align=center;verticalAlign=middle;resizable=0;points=[];labelBackgroundColor=none;" vertex="1" connectable="0" parent="tpqvVLc9ye1XpccJ62tb-40">
          <mxGeometry x="-0.382" y="1" relative="1" as="geometry">
            <mxPoint x="10" y="-7" as="offset" />
          </mxGeometry>
        </mxCell>
        <mxCell id="tpqvVLc9ye1XpccJ62tb-42" value="" style="endArrow=none;html=1;rounded=0;" edge="1" parent="1">
          <mxGeometry width="50" height="50" relative="1" as="geometry">
            <mxPoint x="300" y="224.6" as="sourcePoint" />
            <mxPoint x="400" y="224.6" as="targetPoint" />
          </mxGeometry>
        </mxCell>
        <mxCell id="tpqvVLc9ye1XpccJ62tb-43" value="" style="endArrow=none;html=1;rounded=0;" edge="1" parent="1">
          <mxGeometry width="50" height="50" relative="1" as="geometry">
            <mxPoint x="300.0000000000002" y="201.57999999999998" as="sourcePoint" />
            <mxPoint x="400.0000000000002" y="201.57999999999998" as="targetPoint" />
          </mxGeometry>
        </mxCell>
        <mxCell id="tpqvVLc9ye1XpccJ62tb-44" value="" style="endArrow=none;html=1;rounded=0;" edge="1" parent="1">
          <mxGeometry width="50" height="50" relative="1" as="geometry">
            <mxPoint x="300.0000000000002" y="179.5799999999997" as="sourcePoint" />
            <mxPoint x="400.0000000000002" y="179.5799999999997" as="targetPoint" />
          </mxGeometry>
        </mxCell>
        <mxCell id="tpqvVLc9ye1XpccJ62tb-45" value="" style="ellipse;whiteSpace=wrap;html=1;rounded=0;fillColor=#000000;" vertex="1" parent="1">
          <mxGeometry x="398" y="173.59" width="10" height="10" as="geometry" />
        </mxCell>
        <mxCell id="tpqvVLc9ye1XpccJ62tb-46" value="" style="ellipse;whiteSpace=wrap;html=1;rounded=0;" vertex="1" parent="1">
          <mxGeometry x="398" y="196.59" width="10" height="10" as="geometry" />
        </mxCell>
        <mxCell id="tpqvVLc9ye1XpccJ62tb-47" value="" style="ellipse;whiteSpace=wrap;html=1;rounded=0;" vertex="1" parent="1">
          <mxGeometry x="399.5" y="220" width="10" height="10" as="geometry" />
        </mxCell>
        <mxCell id="tpqvVLc9ye1XpccJ62tb-50" value="Id_entregador" style="edgeLabel;html=1;align=center;verticalAlign=middle;resizable=0;points=[];labelBackgroundColor=none;" vertex="1" connectable="0" parent="1">
          <mxGeometry x="346.0011627906978" y="172.00000000000006" as="geometry" />
        </mxCell>
        <mxCell id="tpqvVLc9ye1XpccJ62tb-51" value="Nome" style="edgeLabel;html=1;align=center;verticalAlign=middle;resizable=0;points=[];labelBackgroundColor=none;" vertex="1" connectable="0" parent="1">
          <mxGeometry x="345.0011627906978" y="192.00000000000028" as="geometry" />
        </mxCell>
        <mxCell id="tpqvVLc9ye1XpccJ62tb-52" value="Pontuação_entregador" style="edgeLabel;html=1;align=center;verticalAlign=middle;resizable=0;points=[];labelBackgroundColor=none;" vertex="1" connectable="0" parent="1">
          <mxGeometry x="357.0011627906978" y="214.00000000000006" as="geometry" />
        </mxCell>
        <mxCell id="tpqvVLc9ye1XpccJ62tb-55" value="" style="ellipse;whiteSpace=wrap;html=1;rounded=0;" vertex="1" parent="1">
          <mxGeometry x="400" y="235" width="10" height="10" as="geometry" />
        </mxCell>
        <mxCell id="tpqvVLc9ye1XpccJ62tb-57" value="CPF" style="edgeLabel;html=1;align=center;verticalAlign=middle;resizable=0;points=[];labelBackgroundColor=none;" vertex="1" connectable="0" parent="1">
          <mxGeometry x="346.0011627906978" y="235.00000000000006" as="geometry" />
        </mxCell>
        <mxCell id="tpqvVLc9ye1XpccJ62tb-61" value="" style="endArrow=none;html=1;rounded=0;" edge="1" parent="1">
          <mxGeometry width="50" height="50" relative="1" as="geometry">
            <mxPoint x="300.0000000000002" y="239.99999999999972" as="sourcePoint" />
            <mxPoint x="400.0000000000002" y="239.99999999999972" as="targetPoint" />
          </mxGeometry>
        </mxCell>
        <mxCell id="tpqvVLc9ye1XpccJ62tb-62" value="" style="ellipse;whiteSpace=wrap;html=1;rounded=0;" vertex="1" parent="1">
          <mxGeometry x="160" y="20" width="10" height="10" as="geometry" />
        </mxCell>
        <mxCell id="tpqvVLc9ye1XpccJ62tb-63" value="CPF" style="edgeLabel;html=1;align=center;verticalAlign=middle;resizable=0;points=[];labelBackgroundColor=none;" vertex="1" connectable="0" parent="1">
          <mxGeometry x="106.00116279069778" y="20.000000000000057" as="geometry" />
        </mxCell>
        <mxCell id="tpqvVLc9ye1XpccJ62tb-64" value="" style="endArrow=none;html=1;rounded=0;" edge="1" parent="1">
          <mxGeometry width="50" height="50" relative="1" as="geometry">
            <mxPoint x="60.00000000000023" y="24.999999999999773" as="sourcePoint" />
            <mxPoint x="160.00000000000023" y="24.999999999999773" as="targetPoint" />
          </mxGeometry>
        </mxCell>
        <mxCell id="tpqvVLc9ye1XpccJ62tb-65" value="" style="ellipse;whiteSpace=wrap;html=1;rounded=0;" vertex="1" parent="1">
          <mxGeometry x="160" y="70" width="10" height="10" as="geometry" />
        </mxCell>
        <mxCell id="tpqvVLc9ye1XpccJ62tb-66" value="Telefone" style="edgeLabel;html=1;align=center;verticalAlign=middle;resizable=0;points=[];labelBackgroundColor=none;" vertex="1" connectable="0" parent="1">
          <mxGeometry x="106.00116279069778" y="70.00000000000006" as="geometry" />
        </mxCell>
        <mxCell id="tpqvVLc9ye1XpccJ62tb-67" value="" style="endArrow=none;html=1;rounded=0;" edge="1" parent="1">
          <mxGeometry width="50" height="50" relative="1" as="geometry">
            <mxPoint x="60.00000000000023" y="74.99999999999977" as="sourcePoint" />
            <mxPoint x="160.00000000000023" y="74.99999999999977" as="targetPoint" />
          </mxGeometry>
        </mxCell>
        <mxCell id="tpqvVLc9ye1XpccJ62tb-68" value="" style="ellipse;whiteSpace=wrap;html=1;rounded=0;" vertex="1" parent="1">
          <mxGeometry x="634" y="558.75" width="10" height="10" as="geometry" />
        </mxCell>
        <mxCell id="tpqvVLc9ye1XpccJ62tb-69" value="Telefone" style="edgeLabel;html=1;align=center;verticalAlign=middle;resizable=0;points=[];labelBackgroundColor=none;" vertex="1" connectable="0" parent="1">
          <mxGeometry x="580.0011627906978" y="558.75" as="geometry" />
        </mxCell>
        <mxCell id="tpqvVLc9ye1XpccJ62tb-70" value="" style="endArrow=none;html=1;rounded=0;" edge="1" parent="1">
          <mxGeometry width="50" height="50" relative="1" as="geometry">
            <mxPoint x="534.0000000000002" y="563.7499999999998" as="sourcePoint" />
            <mxPoint x="634.0000000000002" y="563.7499999999998" as="targetPoint" />
          </mxGeometry>
        </mxCell>
        <mxCell id="tpqvVLc9ye1XpccJ62tb-71" value="" style="triangle;whiteSpace=wrap;html=1;fillColor=none;rotation=-90;" vertex="1" parent="1">
          <mxGeometry x="20" y="100.31" width="30" height="48.44" as="geometry" />
        </mxCell>
        <mxCell id="tpqvVLc9ye1XpccJ62tb-94" value="" style="ellipse;whiteSpace=wrap;html=1;rounded=0;fillColor=#000000;" vertex="1" parent="1">
          <mxGeometry x="-270" y="-95.38" width="10" height="10" as="geometry" />
        </mxCell>
        <mxCell id="tpqvVLc9ye1XpccJ62tb-95" value="" style="ellipse;whiteSpace=wrap;html=1;rounded=0;" vertex="1" parent="1">
          <mxGeometry x="-270" y="-79.88" width="10" height="10" as="geometry" />
        </mxCell>
        <mxCell id="tpqvVLc9ye1XpccJ62tb-97" value="" style="endArrow=none;html=1;rounded=0;" edge="1" parent="1">
          <mxGeometry width="50" height="50" relative="1" as="geometry">
            <mxPoint x="-260" y="-90.43999999999994" as="sourcePoint" />
            <mxPoint x="-180" y="-90.43999999999994" as="targetPoint" />
          </mxGeometry>
        </mxCell>
        <mxCell id="tpqvVLc9ye1XpccJ62tb-98" value="Id_usuario" style="edgeLabel;html=1;align=center;verticalAlign=middle;resizable=0;points=[];labelBackgroundColor=none;" vertex="1" connectable="0" parent="tpqvVLc9ye1XpccJ62tb-97">
          <mxGeometry x="-0.382" y="1" relative="1" as="geometry">
            <mxPoint x="5" y="-7" as="offset" />
          </mxGeometry>
        </mxCell>
        <mxCell id="tpqvVLc9ye1XpccJ62tb-99" value="Text" style="text;html=1;align=center;verticalAlign=middle;resizable=0;points=[];autosize=1;strokeColor=none;fillColor=none;" vertex="1" parent="1">
          <mxGeometry x="-140" y="30" width="40" height="20" as="geometry" />
        </mxCell>
      </root>
    </mxGraphModel>
  </diagram>
</mxfile>
